<svg width="202" height="32" viewBox="0 0 202 32" fill="none" xmlns="http://www.w3.org/2000/svg">
<path d="M82.1879 11.2827L82.0797 13.916C82.8327 12.6942 84.3181 11.2827 86.612 11.2827C89.7992 11.2827 92.0668 13.5088 92.0697 17.9624C92.0697 23.5291 88.6939 26.461 84.4292 26.461C83.4029 26.461 82.5388 26.2713 82.0797 25.8905V31.9998H77.0855V11.2827H82.1879ZM66.3543 6.85693C72.3471 6.85693 75.4788 11.2283 75.4788 16.2789C75.4788 22.5234 71.4567 26.461 65.8675 26.461C59.8747 26.461 56.7416 22.0897 56.7416 17.0391C56.7416 10.7945 60.7987 6.85693 66.3543 6.85693ZM100.269 11.2827C104.184 11.2827 106.183 13.7808 106.183 17.2287V17.9139H97.5698C97.5142 21.1443 99.2964 23.1542 101.754 23.1542C103.482 23.1542 104.751 22.5234 105.776 21.1663L106.288 21.4927C105.56 24.479 103.481 26.461 100.079 26.461C96.0844 26.461 93.0609 23.7688 93.0609 19.2108C93.0609 14.3777 96.3812 11.2827 100.269 11.2827ZM163.954 11.2827C168.409 11.2827 171.486 14.1337 171.486 18.5873C171.486 23.1483 168.355 26.461 163.926 26.461C159.471 26.461 156.394 23.61 156.394 19.1563C156.394 14.5953 159.526 11.2827 163.954 11.2827ZM195.981 11.2827C199.895 11.2827 201.893 13.7808 201.893 17.2287V17.908H193.281C193.225 21.1384 195.009 23.1483 197.465 23.1483C199.193 23.1483 200.465 22.5234 201.488 21.1663L202 21.4927C201.27 24.479 199.191 26.461 195.789 26.461C191.795 26.461 188.772 23.7688 188.772 19.2108C188.772 14.3777 192.092 11.2827 195.981 11.2827ZM112.968 11.2827L112.86 13.9984C113.884 12.6942 115.452 11.2827 117.882 11.2827C120.5 11.2827 121.985 12.7486 121.988 15.7349V26.189H116.993V16.1436C116.993 14.9482 116.588 14.2425 115.184 14.2425C114.374 14.2533 113.578 14.458 112.862 14.8394V26.189H107.892V11.2827H112.968ZM131.566 7.12748C136.831 7.12748 139.261 9.59912 139.261 12.8912C139.261 16.6318 136.696 18.8373 131.35 18.8373H129.487V26.189H124.196V7.12748H131.566ZM145.692 7.12748V13.9984C146.718 12.6942 148.258 11.2827 150.714 11.2827C153.309 11.2827 154.792 12.7765 154.792 15.7349V26.189H149.796V16.1436C149.796 14.9482 149.391 14.2425 147.987 14.2425C147.185 14.2499 146.397 14.4549 145.692 14.8394V26.189H140.698V7.12748H145.692ZM178.165 11.2827L178.057 13.9984C179.083 12.6942 180.649 11.2827 183.079 11.2827C185.697 11.2827 187.182 12.7486 187.185 15.7349V26.189H182.191V16.1436C182.191 14.9482 181.786 14.2425 180.381 14.2425C179.571 14.2533 178.775 14.458 178.06 14.8394V26.189H173.089V11.2827H178.165ZM163.818 12.4295C162.198 12.4295 161.686 14.5189 161.686 17.9683C161.686 22.4161 162.334 25.32 164.062 25.32C165.682 25.32 166.195 23.2292 166.195 19.7812C166.195 15.3349 165.572 12.4295 163.818 12.4295ZM83.6704 14.2425C83.1051 14.2313 82.5496 14.3923 82.0768 14.7042V22.3338C82.0768 24.0982 82.5637 25.1848 83.9935 25.1848C85.938 25.1848 86.9907 22.6866 86.9907 19.4828C86.9907 15.8981 85.7172 14.2425 83.6704 14.2425ZM65.9757 8.1626C63.249 8.1626 62.3309 12.3443 62.3309 16.3362C62.3309 21.1663 63.4113 25.1583 66.2461 25.1583C68.9728 25.1583 69.8909 20.9766 69.8909 16.9847C69.8909 12.1546 68.8105 8.1626 65.9757 8.1626ZM130.104 8.40373H129.483V17.4199H130.108C132.695 17.4199 134.073 15.6834 134.073 12.8853C134.073 10.0873 132.534 8.40373 130.104 8.40373ZM99.9456 12.4207C98.4601 12.4207 97.7306 14.1337 97.5961 16.6553H101.916C101.916 14.0219 101.408 12.4207 99.9456 12.4207ZM195.656 12.4207C194.171 12.4207 193.443 14.1337 193.307 16.6553H197.627C197.627 14.0219 197.118 12.4207 195.656 12.4207Z" fill="#FFFFFF"/>
<path d="M27.443 9.92575e-06C23.1936 -0.00482299 19.1253 1.75542 16.1743 4.87562C20.6167 6.70911 23.5245 11.1099 23.5245 15.9998C23.5245 20.8897 20.6167 25.2905 16.1743 27.1239C21.1305 32.3524 28.9194 33.511 35.1321 29.9438C41.3447 26.3766 44.4171 18.9818 42.6101 11.9451C40.8031 4.90841 34.5716 0.00137145 27.443 0.00162477V9.92575e-06ZM16.1743 4.87562C11.262 2.84621 5.62625 4.42015 2.41125 8.71938C-0.803749 13.0186 -0.803749 18.981 2.41125 23.2802C5.62625 27.5794 11.262 29.1534 16.1743 27.1239C10.2941 20.9216 10.2941 11.078 16.1743 4.87562Z" fill="#6333FF"/>
</svg>
